<?xml version="1.0" encoding="utf-8"?>
<!-- Generator: Adobe Illustrator 27.6.1, SVG Export Plug-In . SVG Version: 6.00 Build 0)  -->
<svg version="1.1" baseProfile="basic" id="Layer_1"
	 xmlns="http://www.w3.org/2000/svg" xmlns:xlink="http://www.w3.org/1999/xlink" x="0px" y="0px" viewBox="0 0 120 20.5"
	 xml:space="preserve">
<style type="text/css">
	.st0{fill:#3D474E;}
</style>
<g>
	<path class="st0" d="M12.76,11.1c0,0.77-0.16,1.45-0.47,2.04c-0.31,0.59-0.74,1.07-1.27,1.46c-0.63,0.46-1.3,0.78-2.02,0.97
		c-0.72,0.19-1.65,0.29-2.79,0.29H1.4V0.36h4.44c1.19,0,2.09,0.04,2.68,0.11c0.6,0.07,1.17,0.24,1.72,0.51
		c0.6,0.3,1.04,0.69,1.32,1.17c0.28,0.48,0.42,1.05,0.42,1.7c0,0.73-0.21,1.38-0.62,1.96c-0.42,0.58-0.99,1.03-1.73,1.35v0.08
		c1,0.25,1.77,0.71,2.32,1.37C12.49,9.28,12.76,10.11,12.76,11.1z M9.66,4.15c0-0.37-0.07-0.7-0.2-0.97S9.1,2.69,8.8,2.53
		c-0.36-0.19-0.76-0.3-1.2-0.34C7.16,2.14,6.55,2.12,5.77,2.12H3.63v4.54h2.53c0.7,0,1.21-0.03,1.54-0.1
		c0.33-0.07,0.67-0.2,1.02-0.41c0.34-0.2,0.58-0.46,0.72-0.79C9.59,5.03,9.66,4.63,9.66,4.15z M10.45,11.18
		c0-0.58-0.09-1.06-0.27-1.44C10,9.36,9.63,9.04,9.08,8.78C8.73,8.6,8.35,8.49,7.93,8.45C7.52,8.4,6.92,8.37,6.16,8.37H3.63v5.72
		h1.81c0.97,0,1.74-0.04,2.31-0.13c0.56-0.08,1.06-0.26,1.49-0.53c0.42-0.27,0.73-0.58,0.92-0.92
		C10.35,12.17,10.45,11.73,10.45,11.18z"/>
	<path class="st0" d="M24.71,15.85H22.6v-1.29c-0.65,0.53-1.27,0.93-1.86,1.2c-0.59,0.27-1.24,0.41-1.96,0.41
		c-0.55,0-1.06-0.08-1.55-0.25c-0.48-0.17-0.91-0.43-1.27-0.79c-0.36-0.36-0.64-0.82-0.84-1.36c-0.2-0.55-0.3-1.21-0.3-2V4.23h2.11
		v6.62c0,0.62,0.02,1.13,0.07,1.53c0.05,0.41,0.16,0.76,0.33,1.07c0.17,0.3,0.41,0.52,0.7,0.65c0.3,0.14,0.72,0.21,1.28,0.21
		c0.52,0,1.07-0.14,1.65-0.41c0.59-0.27,1.12-0.6,1.61-1V4.23h2.11V15.85z"/>
	<path class="st0" d="M37.65,4.23l-6.76,15.91h-2.26l2.25-4.85L26.31,4.23h2.28l3.43,8.6l3.42-8.6H37.65z"/>
	<path class="st0" d="M37.6,15.85l5.65-15.49h2.74l5.65,15.49h-2.35l-1.52-4.33h-6.4l-1.52,4.33H37.6z M47.15,9.77l-2.59-7.3
		l-2.58,7.3H47.15z"/>
	<path class="st0" d="M58.05,16.11c-0.86,0-1.65-0.12-2.37-0.37c-0.72-0.25-1.34-0.62-1.86-1.12c-0.52-0.5-0.92-1.13-1.2-1.89
		s-0.43-1.65-0.43-2.68c0-1.02,0.15-1.9,0.44-2.64s0.69-1.37,1.19-1.87c0.49-0.51,1.11-0.9,1.85-1.17c0.74-0.27,1.53-0.41,2.38-0.41
		c0.69,0,1.36,0.09,2,0.27c0.64,0.18,1.21,0.39,1.72,0.62v2.19h-0.12c-0.15-0.12-0.34-0.25-0.58-0.41
		c-0.24-0.15-0.52-0.31-0.86-0.47c-0.29-0.14-0.64-0.26-1.04-0.36c-0.4-0.1-0.78-0.16-1.15-0.16c-1.1,0-1.97,0.38-2.64,1.15
		c-0.66,0.77-1,1.85-1,3.25c0,1.37,0.32,2.44,0.96,3.21s1.53,1.15,2.67,1.15c0.69,0,1.35-0.13,1.97-0.39
		c0.62-0.26,1.17-0.6,1.65-1.02h0.12v2.2c-0.21,0.09-0.47,0.2-0.79,0.33c-0.31,0.13-0.6,0.22-0.85,0.29
		c-0.36,0.1-0.68,0.17-0.97,0.22C58.87,16.09,58.5,16.11,58.05,16.11z"/>
	<path class="st0" d="M68.62,16.11c-0.86,0-1.65-0.12-2.37-0.37c-0.72-0.25-1.34-0.62-1.86-1.12c-0.52-0.5-0.92-1.13-1.2-1.89
		c-0.28-0.76-0.43-1.65-0.43-2.68c0-1.02,0.15-1.9,0.44-2.64s0.69-1.37,1.19-1.87c0.49-0.51,1.11-0.9,1.85-1.17
		c0.74-0.27,1.53-0.41,2.38-0.41c0.69,0,1.36,0.09,2,0.27c0.64,0.18,1.21,0.39,1.72,0.62v2.19h-0.12c-0.15-0.12-0.34-0.25-0.58-0.41
		c-0.24-0.15-0.52-0.31-0.86-0.47c-0.29-0.14-0.64-0.26-1.04-0.36c-0.4-0.1-0.78-0.16-1.15-0.16c-1.1,0-1.97,0.38-2.64,1.15
		c-0.66,0.77-1,1.85-1,3.25c0,1.37,0.32,2.44,0.96,3.21s1.53,1.15,2.67,1.15c0.69,0,1.35-0.13,1.97-0.39
		c0.62-0.26,1.17-0.6,1.65-1.02h0.12v2.2c-0.21,0.09-0.47,0.2-0.79,0.33c-0.31,0.13-0.6,0.22-0.85,0.29
		c-0.36,0.1-0.68,0.17-0.97,0.22C69.43,16.09,69.07,16.11,68.62,16.11z"/>
	<path class="st0" d="M84.59,10.05c0,1.96-0.51,3.47-1.53,4.53c-1.02,1.06-2.38,1.6-4.07,1.6c-1.75,0-3.12-0.55-4.12-1.65
		c-1-1.1-1.5-2.59-1.5-4.48c0-1.94,0.52-3.45,1.55-4.52s2.39-1.61,4.08-1.61c1.69,0,3.05,0.54,4.07,1.61
		C84.08,6.59,84.59,8.1,84.59,10.05z M82.41,10.05c0-1.5-0.3-2.62-0.89-3.35s-1.44-1.1-2.53-1.1c-1.1,0-1.95,0.37-2.55,1.1
		c-0.6,0.73-0.89,1.85-0.89,3.35c0,1.46,0.3,2.56,0.89,3.31c0.59,0.75,1.44,1.13,2.55,1.13c1.09,0,1.93-0.37,2.53-1.11
		C82.11,12.64,82.41,11.53,82.41,10.05z"/>
	<path class="st0" d="M96.55,15.85h-2.11v-1.29c-0.65,0.53-1.27,0.93-1.86,1.2c-0.59,0.27-1.24,0.41-1.96,0.41
		c-0.55,0-1.06-0.08-1.55-0.25c-0.48-0.17-0.91-0.43-1.27-0.79c-0.36-0.36-0.64-0.82-0.84-1.36c-0.2-0.55-0.3-1.21-0.3-2V4.23h2.11
		v6.62c0,0.62,0.03,1.13,0.07,1.53c0.05,0.41,0.16,0.76,0.33,1.07c0.17,0.3,0.41,0.52,0.7,0.65c0.3,0.14,0.72,0.21,1.28,0.21
		c0.52,0,1.07-0.14,1.65-0.41c0.59-0.27,1.12-0.6,1.61-1V4.23h2.11V15.85z"/>
	<path class="st0" d="M109.49,15.85h-2.11V9.24c0-0.53-0.03-1.03-0.08-1.49c-0.06-0.46-0.16-0.83-0.32-1.11
		c-0.17-0.29-0.41-0.51-0.72-0.65c-0.31-0.14-0.73-0.21-1.26-0.21c-0.53,0-1.07,0.13-1.63,0.39c-0.56,0.26-1.1,0.6-1.64,1.01v8.68
		h-2.11V4.23h2.11v1.29c0.63-0.52,1.25-0.92,1.87-1.2c0.62-0.28,1.26-0.42,1.95-0.42c1.24,0,2.2,0.38,2.9,1.13
		c0.7,0.75,1.05,1.84,1.05,3.27V15.85z"/>
	<path class="st0" d="M116.26,16.08c-1.16,0-2.05-0.3-2.7-0.91c-0.64-0.61-0.97-1.57-0.97-2.88V5.86h-1.43V4.23h1.43V0.89h2.11v3.34
		h3.89v1.62h-3.89v5.52c0,0.59,0.01,1.04,0.03,1.36c0.02,0.32,0.11,0.62,0.26,0.89c0.13,0.24,0.33,0.42,0.62,0.55
		c0.28,0.12,0.67,0.18,1.16,0.18c0.34,0,0.68-0.05,1-0.14s0.56-0.17,0.7-0.23h0.12v1.76c-0.4,0.1-0.8,0.19-1.21,0.24
		C116.98,16.05,116.6,16.08,116.26,16.08z"/>
</g>
</svg>
